/* XPM */
static char *disk_cat[] = {
/* width height ncolors chars_per_pixel */
"32 32 5 1",
/* colors */
"  c #000000",
". c #000080",
"X c #FFFFFF",
"o c #FFFF00",
"O c #708090",
/* pixels */
"XXXXXXXXXXXXXXXXXXXXXXXXXXXXXXXX",
"XX...                      ...XX",
"X.... oooooooooooooooooooo ....X",
"X.... oooooooooooooooooooo ....X",
"O. X. oooooooooooooooooooo ....X",
"O. O. X   XX X   X X XXXXX ....X",
"O.  . X XX X X XXX X XXXXX ....X",
"O.... X XX X X   X  XXXXXX ....X",
"O.... X XX X XXX X X XXXXX ....X",
"O.... X   XX X   X X XXXXX ....X",
"O.... XXXXXXXXXXXXXXXXXXXX ....X",
"O.... X   X   X   XXXXXXXX ....X",
"O.... X XXX X XX XXXXXXXXX ....X",
"O.... X XXX   XX XXXXXXXXX ....X",
"O.... X   X X XX XX XXXXXX ....X",
"O.... XXXXXXXXXXXXXXXXXXXX ....X",
"O.... XXXXXXXXXXXXXXXXXXXX ....X",
"O.... XXXXXXXXXXXXXXXXXXXX ....X",
"O.....                    .....X",
"O..............................X",
"O..............................X",
"O..............................X",
"O......OOOOOOOOOOOOOOOOO.......X",
"O.....O.....OXOOOOOOOOOOO......X",
"O.....O.....OXOOOOOOOOOOO......X",
"O.....O.....OXOOOOOOOOOOO......X",
"O.....O.....OXOOOOOOOOOOO......X",
"O.....O.....OXOOOOOOOOOOO......X",
"O.....O.....OXOOOOOOOOOOO......X",
"OOO...OOOOOOOOOOOOOOOOOOO......X",
"XXOO..                   ......X",
"XXXOOOOOOOOOOOOOOOOOOOOOOOOOOXXX"
};
