/* XPM */
static char *door2[] = {
/* width height ncolors chars_per_pixel */
"32 32 7 1",
/* colors */
"  c #000000",
". c #00FFFF",
"X c #E6FAFA",
"o c #C0C0C0",
"O c #008080",
"+ c #808080",
"@ c #FFFFFF",
/* pixels */
"XXXXXXXXXXXX                XXXX",
"XXXXXXXXXXXX ooooooooooo .. oXXX",
"XXXXXXXXXXXX oooooooooo ..O o+XX",
"XXXXXXXXXXXX ooooooooo ..OO o+XX",
"XXXXXXXXX  X oooooooo ..OOO o+XX",
"XXXXXXXXX O  ooooooo ..OOOO o+XX",
"XXXXXXXXX .O oooooo ..OOOOO o+XX",
"XXXXXXXXX ..O ooooo ..OOOOO o+XX",
"XXXXXXXXX ...O oooo ..OOOOO o+XX",
"XX        .@..O ooo ..OOOOO o+XX",
"X ..........@..O oo ..OOOOO o+XX",
"X ..@@@@@@@@@@..O o ..OOOOO o+XX",
"X .............OO o ..OOOOO o+XX",
"X OOOOOOOO....OO oo ..OOOOO o+XX",
"XX        ...OO ooo ..O  OO o+XX",
"XXX++++++ ..OO oooo .. @ OO o+XX",
"XXXX+++++ .OO ooooo .. o OO o+XX",
"XXXXXXXXX OO oooooo ..O  OO o+XX",
"XXXXXXXXX O  oooooo ..OOOOO o+XX",
"XXXXXXXXX  + oooooo ..OOOOO o+XX",
"XXXXXXXXX ++ oooooo ..OOOOO o+XX",
"XXXXXXXXXX+X        ..OOOOO o+XX",
"XXXXXXXXXXXX @@++@@ ..OOOOO o+XX",
"XXXXXXXXXXXX ++@@@+ ..OOOOO o+XX",
"             @@@++@ ..OOOOO     ",
"+@@@++@@@++@@@++@@@ ..OOOO @@++@",
"@@++@@@++@@@++@@@++ ..OOO @++@@@",
"++@@@++@@@++@@@++@@ ..OO ++@@@++",
"+@@++@@@++@@@++@@@+ ..O +@@@++@+",
"+++@@@++@@@++@@@++@ .. @@@++@@++",
"++++++@@@++@@@++@@@   @@++@@++++",
"++++++++++++++++++++++++++++++++"
};
